<svg width="517" height="517" xmlns="http://www.w3.org/2000/svg" xmlns:xlink="http://www.w3.org/1999/xlink" xml:space="preserve" overflow="hidden"><g transform="translate(-381 -101)"><g><g><g><g><path d="M559.375 267.55C559.375 294.267 537.717 315.925 511 315.925 484.283 315.925 462.625 294.267 462.625 267.55 462.625 240.833 484.283 219.175 511 219.175 537.717 219.175 559.375 240.833 559.375 267.55Z" fill="#000000" fill-rule="nonzero" fill-opacity="1"/><path d="M817.375 267.55C817.375 294.267 795.717 315.925 769 315.925 742.283 315.925 720.625 294.267 720.625 267.55 720.625 240.833 742.283 219.175 769 219.175 795.717 219.175 817.375 240.833 817.375 267.55Z" fill="#000000" fill-rule="nonzero" fill-opacity="1"/><path d="M736.75 500.825 736.75 452.45C736.75 444.925 733.525 437.4 727.075 433.1 714.175 422.35 696.975 414.825 679.775 410.525 667.95 407.3 653.975 404.075 640 404.075 627.1 404.075 613.125 406.225 600.225 410.525 583.025 414.825 566.9 423.425 552.925 433.1 546.475 438.475 543.25 444.925 543.25 452.45L543.25 500.825 736.75 500.825Z" fill="#000000" fill-rule="nonzero" fill-opacity="1"/><path d="M688.375 342.8C688.375 369.517 666.717 391.175 640 391.175 613.283 391.175 591.625 369.517 591.625 342.8 591.625 316.083 613.283 294.425 640 294.425 666.717 294.425 688.375 316.083 688.375 342.8Z" fill="#000000" fill-rule="nonzero" fill-opacity="1"/><path d="M856.075 357.85C843.175 347.1 825.975 339.575 808.775 335.275 796.95 332.05 782.975 328.825 769 328.825 756.1 328.825 742.125 330.975 729.225 335.275 722.775 337.425 716.325 339.575 709.875 342.8L709.875 343.875C709.875 362.15 702.35 379.35 690.525 391.175 710.95 397.625 727.075 406.225 739.975 415.9 743.2 419.125 746.425 421.275 748.575 425.575L865.75 425.575 865.75 377.2C865.75 369.675 862.525 362.15 856.075 357.85Z" fill="#000000" fill-rule="nonzero" fill-opacity="1"/><path d="M540.025 415.9 540.025 415.9C555.075 405.15 572.275 396.55 589.475 391.175 577.65 378.275 570.125 362.15 570.125 343.875 570.125 342.8 570.125 342.8 570.125 341.725 563.675 339.575 557.225 336.35 550.775 335.275 538.95 332.05 524.975 328.825 511 328.825 498.1 328.825 484.125 330.975 471.225 335.275 454.025 340.65 437.9 348.175 423.925 357.85 417.475 362.15 414.25 369.675 414.25 377.2L414.25 425.575 530.35 425.575C533.575 421.275 535.725 419.125 540.025 415.9Z" fill="#000000" fill-rule="nonzero" fill-opacity="1"/></g></g></g></g></g></svg>